{"title":"We Bought A Zoo 2011 DVDRip XViD DTRG","uid":7139838,"size":1793225016,"categoryP":"video","categoryS":"movies","magnet":"?xt=urn:btih:799a14f16bdd4bb8617f5b8387fafa6f70a5d4f0&amp;dn=We+Bought+A+Zoo+2011+DVDRip+XViD+DTRG&amp;tr=udp%3A%2F%2Ftracker.openbittorrent.com%3A80&amp;tr=udp%3A%2F%2Fopen.demonii.com%3A1337&amp;tr=udp%3A%2F%2Ftracker.coppersurfer.tk%3A6969&amp;tr=udp%3A%2F%2Fexodus.desync.com%3A6969","seeders":1,"leechers":1,"uploader":"BLOVES","files":3,"time":1332964969,"description":"Format : AVI\nFormat/Info : Audio Video Interleave\nFile size : 1.65 GiB\nDuration : 2h 1mn\nOverall bit rate : 1 945 Kbps\nWriting library : VirtualDub build 32842/release\n\nVideo\nID : 0\nFormat : MPEG-4 Visual\nFormat profile : Advanced Simple@L5\nFormat settings, BVOP : 2\nFormat settings, QPel : No\nFormat settings, GMC : No warppoints\nFormat settings, Matrix : Default (H.263)\nMuxing mode : Packed bitstream\nCodec ID : XVID\nCodec ID/Hint : XviD\nDuration : 2h 1mn\nBit rate : 1 486 Kbps\nWidth : 720 pixels\nHeight : 400 pixels\nDisplay aspect ratio : 16:9\nFrame rate : 29.970 fps\nColor space : YUV\nChroma subsampling : 4:2:0\nBit depth : 8 bits\nScan type : Progressive\nCompression mode : Lossy\nBits/(Pixel*Frame) : 0.172\nStream size : 1.26 GiB (76%)\nWriting library : XviD 64\n\nAudio\nID : 1\nFormat : AC-3\nFormat/Info : Audio Coding 3\nMode extension : CM (complete main)\nCodec ID : 2000\nDuration : 2h 1mn\nBit rate mode : Constant\nBit rate : 448 Kbps\nChannel(s) : 6 channels\nChannel positions : Front: L C R, Side: L R, LFE\nSampling rate : 48.0 KHz\nBit depth : 16 bits\nCompression mode : Lossy\nStream size : 389 MiB (23%)\nAlignment : Aligned on interleaves\nInterleave, duration : 33 ms (1.00 video frame)\nInterleave, preload duration : 512 ms\n\n\n\n\n\n &lt;a href=&quot;\nhttp://www.imdb.com/title/tt1389137/&quot; rel=&quot;nofollow&quot; target=&quot;_NEW&quot;&gt;\nhttp://www.imdb.com/title/tt1389137/&lt;/a&gt;\n\n\n\n\n\nRatings: 7.3/10 from 5,682 users Metascore: 58/100 \nReviews: 74 user | 120 critic | 40 from Metacritic.com\n\nSet in Southern California, a father moves his young family to the countryside to renovate and re-open a struggling zoo.\n\nDirector:\nCameron Crowe\nWriters:\nAline Brosh McKenna (screenplay), Cameron Crowe (screenplay), and 1 more credit Â»\nStars:\nMatt Damon, Scarlett Johansson and Thomas Haden Church \n\n\n\n\n\n\n\nSource Used\n\n\n\nWe Bought A Zoo DVDR-MPTDVD......Thanks\n\n\n\n\nEnjoy","torrent":{"xt":"urn:btih:799a14f16bdd4bb8617f5b8387fafa6f70a5d4f0","amp;dn":"We+Bought+A+Zoo+2011+DVDRip+XViD+DTRG","amp;tr":["udp%3A%2F%2Ftracker.openbittorrent.com%3A80","udp%3A%2F%2Fopen.demonii.com%3A1337","udp%3A%2F%2Ftracker.coppersurfer.tk%3A6969","udp%3A%2F%2Fexodus.desync.com%3A6969"],"infoHash":"799a14f16bdd4bb8617f5b8387fafa6f70a5d4f0","infoHashBuffer":{"type":"Buffer","data":[121,154,20,241,107,221,75,184,97,127,91,131,135,250,250,111,112,165,212,240]},"announce":[],"urlList":[]}}